<svg width="339" height="311" viewBox="0 0 339 311" fill="none" xmlns="http://www.w3.org/2000/svg">
<path d="M259.131 92.2017C229.598 43.4106 168.725 20.8862 113.385 41.5088C50.764 64.8445 18.941 134.589 42.3059 197.289C65.6709 259.988 135.376 291.898 197.997 268.563C253.337 247.94 284.624 191.072 275.025 134.853" stroke="#1C62C2"/>
<path d="M183.206 229.895C141.565 245.412 95.339 224.532 79.9581 183.258C64.5772 141.983 85.8653 95.9444 127.506 80.4268" stroke="#1C62C2"/>
<path d="M219.225 106.287C198.368 79.291 161.417 67.79 127.506 80.4268C85.8653 95.9444 64.5772 141.983 79.9581 183.258C95.339 224.532 141.565 245.412 183.206 229.895C216.798 217.376 237.145 184.995 235.681 151.276" stroke="#1C62C2"/>
<path d="M206.819 136.633L323.769 93.0515M323.769 93.0515L270.519 68.7147M323.769 93.0515L299.432 146.301" stroke="#1C62C2"/>
</svg>
