<svg width="1600" height="860" viewBox="0 0 1600 860" fill="none" xmlns="http://www.w3.org/2000/svg">
<g clip-path="url(#clip0_382_3447)">
<line y1="-0.5" x2="469.749" y2="-0.5" transform="matrix(0.320737 -0.947168 0.684116 0.729373 1170.52 935.74)" stroke="#1C62C2"/>
<line y1="-0.5" x2="632.586" y2="-0.5" transform="matrix(0.910246 -0.414067 0.346701 0.937976 1321.19 490.808)" stroke="#1C62C2"/>
<line y1="-0.5" x2="847.386" y2="-0.5" transform="matrix(0.263161 -0.964752 0.720626 0.693324 1455.13 768.549)" stroke="#1C62C2"/>
<line y1="-0.5" x2="647.283" y2="-0.5" transform="matrix(0.551749 -0.83401 0.909344 0.416045 1320.99 490.872)" stroke="#1C62C2"/>
<line y1="-0.5" x2="927.834" y2="-0.5" transform="matrix(-0.773338 0.633994 -0.435345 -0.900264 2286.14 426.456)" stroke="#1C62C2"/>
<line y1="-0.5" x2="579.375" y2="-0.5" transform="matrix(0.427043 0.904231 -0.787963 0.615723 1321.19 490.808)" stroke="#1C62C2"/>
<line y1="-0.5" x2="619.176" y2="-0.5" transform="matrix(0.873642 -0.48657 0.373809 0.927506 1168.83 930.551)" stroke="#1C62C2"/>
<line y1="-0.5" x2="962.746" y2="-0.5" transform="matrix(0.969311 -0.245836 0.222322 0.974973 776.571 865.957)" stroke="#1C62C2"/>
<line y1="-0.5" x2="1709.93" y2="-0.5" transform="matrix(0.923428 -0.383771 0.410328 0.911938 348.802 1376.18)" stroke="#1C62C2"/>
<line y1="-0.5" x2="853.714" y2="-0.5" transform="matrix(0.688902 -0.724854 0.814484 0.580186 1121.8 1249.96)" stroke="#1C62C2"/>
<line y1="-0.5" x2="411.925" y2="-0.5" transform="matrix(0.941962 0.33572 0.0507288 0.998712 1321.19 490.808)" stroke="#1C62C2"/>
<line y1="-0.5" x2="410.088" y2="-0.5" transform="matrix(0.343635 -0.939103 0.670107 0.742264 1568.34 1014.56)" stroke="#1C62C2"/>
</g>
<defs>
<clipPath id="clip0_382_3447">
<rect width="1600" height="860" fill="white"/>
</clipPath>
</defs>
</svg>
