<svg width="1545" height="800" viewBox="0 0 1545 800" fill="none" xmlns="http://www.w3.org/2000/svg">
<line y1="-0.5" x2="469.749" y2="-0.5" transform="matrix(0.598044 -0.801463 0.424889 0.905245 918.67 831.271)" stroke="#1C62C2"/>
<line y1="-0.5" x2="443.924" y2="-0.5" transform="matrix(0.681923 -0.731424 0.351664 0.936126 1525.74 708.549)" stroke="#1C62C2"/>
<line y1="-0.5" x2="679.028" y2="-0.5" transform="matrix(0.26472 -0.964325 0.78705 0.616889 1526.28 706.73)" stroke="#1C62C2"/>
<line y1="-0.5" x2="632.586" y2="-0.5" transform="matrix(0.993693 -0.112131 0.0394905 0.99922 1199.6 454.785)" stroke="#1C62C2"/>
<line y1="-0.5" x2="847.386" y2="-0.5" transform="matrix(0.548733 -0.835998 0.470761 0.882261 1241.04 760.339)" stroke="#1C62C2"/>
<line y1="-0.5" x2="647.283" y2="-0.5" transform="matrix(0.782712 -0.622385 0.736008 0.676973 1199.39 454.785)" stroke="#1C62C2"/>
<line y1="-0.5" x2="927.834" y2="-0.5" transform="matrix(-0.931546 0.363624 -0.135453 -0.990784 2137.11 692.135)" stroke="#1C62C2"/>
<line y1="-0.5" x2="610.935" y2="-0.5" transform="matrix(-0.99984 0.0178623 -0.00625686 -0.99998 2137.11 692.135)" stroke="#1C62C2"/>
<line y1="-0.5" x2="430.808" y2="-0.5" transform="matrix(0.787648 0.616125 0.283574 -0.958951 1526.1 702.697)" stroke="#1C62C2"/>
<line y1="-0.5" x2="579.375" y2="-0.5" transform="matrix(0.12633 0.991988 -0.9398 0.341725 1199.6 454.785)" stroke="#1C62C2"/>
<line y1="-0.5" x2="619.176" y2="-0.5" transform="matrix(0.981316 -0.192401 0.0685071 0.997651 918.67 825.815)" stroke="#1C62C2"/>
<line y1="-0.5" x2="962.746" y2="-0.5" transform="matrix(0.997812 0.0661204 -0.090233 0.995921 565.638 643.028)" stroke="#1C62C2"/>
<line y1="-0.5" x2="516.372" y2="-0.5" transform="matrix(0.405676 0.914017 -0.951141 0.308757 565.638 643.028)" stroke="#1C62C2"/>
<line y1="-0.5" x2="397.546" y2="-0.5" transform="matrix(0.888028 0.459788 -0.577793 0.816183 565.638 643.028)" stroke="#1C62C2"/>
<line y1="-0.5" x2="665.819" y2="-0.5" transform="matrix(0.848036 -0.529938 0.649591 0.760284 1 995.87)" stroke="#1C62C2"/>
<line y1="-0.5" x2="853.714" y2="-0.5" transform="matrix(0.879364 -0.476151 0.595018 0.803712 775.118 1115)" stroke="#1C62C2"/>
<line y1="-0.5" x2="411.925" y2="-0.5" transform="matrix(0.791877 0.610681 -0.260751 0.965406 1199.6 454.785)" stroke="#1C62C2"/>
<line y1="-0.5" x2="410.088" y2="-0.5" transform="matrix(0.617324 -0.786709 0.40758 0.91317 1272.58 1029.3)" stroke="#1C62C2"/>
</svg>
