<svg width="40" height="40" viewBox="0 0 40 40" fill="none" xmlns="http://www.w3.org/2000/svg">
<g id="Frame 89">
<path id="Vector" d="M17.06 13H22.94C25.18 13 27 14.82 27 17.06V22.94C27 24.0168 26.5723 25.0495 25.8109 25.8109C25.0495 26.5723 24.0168 27 22.94 27H17.06C14.82 27 13 25.18 13 22.94V17.06C13 15.9832 13.4277 14.9505 14.1891 14.1891C14.9505 13.4277 15.9832 13 17.06 13ZM16.92 14.4C16.2517 14.4 15.6107 14.6655 15.1381 15.1381C14.6655 15.6107 14.4 16.2517 14.4 16.92V23.08C14.4 24.473 15.527 25.6 16.92 25.6H23.08C23.7483 25.6 24.3893 25.3345 24.8619 24.8619C25.3345 24.3893 25.6 23.7483 25.6 23.08V16.92C25.6 15.527 24.473 14.4 23.08 14.4H16.92ZM23.675 15.45C23.9071 15.45 24.1296 15.5422 24.2937 15.7063C24.4578 15.8704 24.55 16.0929 24.55 16.325C24.55 16.5571 24.4578 16.7796 24.2937 16.9437C24.1296 17.1078 23.9071 17.2 23.675 17.2C23.4429 17.2 23.2204 17.1078 23.0563 16.9437C22.8922 16.7796 22.8 16.5571 22.8 16.325C22.8 16.0929 22.8922 15.8704 23.0563 15.7063C23.2204 15.5422 23.4429 15.45 23.675 15.45ZM20 16.5C20.9283 16.5 21.8185 16.8687 22.4749 17.5251C23.1313 18.1815 23.5 19.0717 23.5 20C23.5 20.9283 23.1313 21.8185 22.4749 22.4749C21.8185 23.1313 20.9283 23.5 20 23.5C19.0717 23.5 18.1815 23.1313 17.5251 22.4749C16.8687 21.8185 16.5 20.9283 16.5 20C16.5 19.0717 16.8687 18.1815 17.5251 17.5251C18.1815 16.8687 19.0717 16.5 20 16.5ZM20 17.9C19.443 17.9 18.9089 18.1212 18.5151 18.5151C18.1212 18.9089 17.9 19.443 17.9 20C17.9 20.557 18.1212 21.0911 18.5151 21.4849C18.9089 21.8788 19.443 22.1 20 22.1C20.557 22.1 21.0911 21.8788 21.4849 21.4849C21.8788 21.0911 22.1 20.557 22.1 20C22.1 19.443 21.8788 18.9089 21.4849 18.5151C21.0911 18.1212 20.557 17.9 20 17.9Z" fill="#2365BE"/>
<rect x="0.263705" y="0.263705" width="39.4726" height="39.4726" rx="19.7363" stroke="#1C62C2" stroke-width="0.527409"/>
</g>
</svg>
