<svg width="40" height="40" viewBox="0 0 40 40" fill="none" xmlns="http://www.w3.org/2000/svg">
<g id="mingcute:telegram-line" clip-path="url(#clip0_119_3913)">
<g id="Group">
<path id="Vector" fill-rule="evenodd" clip-rule="evenodd" d="M34.4 10.0935C34.4727 9.6524 34.4258 9.19984 34.2641 8.78301C34.1024 8.36617 33.8319 8.00032 33.4808 7.72356C33.1297 7.44681 32.7107 7.26928 32.2677 7.20948C31.8246 7.14968 31.3736 7.20978 30.9617 7.38354L2.46165 19.3835C0.474985 20.2202 0.373318 23.0935 2.46165 23.9602C4.52951 24.8226 6.62752 25.6109 8.75165 26.3235C10.6983 26.9669 12.8217 27.5619 14.5233 27.7302C14.9883 28.2869 15.5733 28.8219 16.17 29.3135C17.0817 30.0635 18.1783 30.8352 19.3117 31.5752C21.5817 33.0585 24.1 34.4769 25.7967 35.4002C27.825 36.5002 30.2533 35.2335 30.6167 33.0219L34.4 10.0935ZM5.65665 21.6535L30.8633 11.0419L27.3333 32.4419C25.6683 31.5369 23.27 30.1819 21.1333 28.7852C20.1485 28.153 19.1978 27.4692 18.285 26.7369C18.041 26.5376 17.8042 26.3297 17.575 26.1135L24.1767 19.5135C24.4894 19.201 24.6652 18.7771 24.6653 18.335C24.6655 17.8928 24.49 17.4688 24.1775 17.156C23.865 16.8433 23.441 16.6675 22.9989 16.6674C22.5568 16.6672 22.1327 16.8427 21.82 17.1552L14.5917 24.3835C13.3683 24.2269 11.665 23.7735 9.79498 23.1569C8.40281 22.6931 7.02175 22.1918 5.65665 21.6535Z" fill="#2365BE"/>
</g>
</g>
<defs>
<clipPath id="clip0_119_3913">
<rect width="40" height="40" fill="white"/>
</clipPath>
</defs>
</svg>
