<svg width="40" height="40" viewBox="0 0 40 40" fill="none" xmlns="http://www.w3.org/2000/svg">
<g id="ri:twitter-fill">
<path id="Vector" d="M38.02 11.4265C36.7481 11.9892 35.3994 12.3588 34.0184 12.5232C35.4735 11.6518 36.5622 10.2811 37.0817 8.66654C35.715 9.47988 34.2167 10.0499 32.6567 10.3582C31.6077 9.23584 30.2173 8.49148 28.7016 8.24085C27.1859 7.99022 25.6299 8.24736 24.2755 8.9723C22.921 9.69724 21.844 10.8494 21.2119 12.2495C20.5798 13.6497 20.4279 15.2195 20.78 16.7149C18.0083 16.5762 15.2966 15.8561 12.8213 14.6013C10.3459 13.3465 8.16209 11.5852 6.41169 9.43154C5.79218 10.4956 5.46662 11.7053 5.46836 12.9365C5.46836 15.3532 6.70003 17.4882 8.56836 18.7382C7.46172 18.7033 6.37944 18.4045 5.41169 17.8665V17.9515C5.41164 19.5613 5.96841 21.1216 6.98758 22.3677C8.00674 23.6137 9.42555 24.4689 11.0034 24.7882C9.97609 25.0669 8.89885 25.1079 7.85336 24.9082C8.29823 26.2939 9.16538 27.5057 10.3334 28.3739C11.5013 29.2421 12.9116 29.7232 14.3667 29.7499C12.9206 30.8856 11.2648 31.7252 9.49404 32.2205C7.72324 32.7158 5.87217 32.8572 4.04669 32.6365C7.23289 34.6855 10.9419 35.7733 14.73 35.7699C27.5534 35.7699 34.5634 25.1482 34.5634 15.9365C34.5634 15.6365 34.5567 15.3332 34.5434 15.0349C35.9074 14.0488 37.0847 12.8258 38.02 11.4265Z" fill="#1C62C2"/>
</g>
</svg>
